<?xml version="1.0" encoding="UTF-8"?>
<svg version="1.1" xmlns="http://www.w3.org/2000/svg" width="500" height="500">
<path d="M0 0 C1.53635775 -0.00390106 3.07271445 -0.00823855 4.60906982 -0.01298523 C7.81282054 -0.02039626 11.01646098 -0.02019434 14.22021484 -0.01489258 C18.27874385 -0.00911394 22.3368141 -0.02601508 26.39526749 -0.04923725 C29.56476375 -0.06413877 32.73415379 -0.06482415 35.90367889 -0.06172752 C37.39765071 -0.06223284 38.89162978 -0.06731774 40.38556671 -0.07753944 C54.46578482 -0.16206104 68.01063848 1.34622963 80.984375 7.23828125 C82.16 7.74004883 82.16 7.74004883 83.359375 8.25195312 C90.07201933 11.18449724 95.64228287 14.90387664 101.109375 19.80078125 C101.96015625 20.55359375 102.8109375 21.30640625 103.6875 22.08203125 C105.67834068 24.11583971 106.79225305 25.69226093 107.859375 28.30078125 C108.519375 28.30078125 109.179375 28.30078125 109.859375 28.30078125 C111.859375 31.30078125 111.859375 31.30078125 111.859375 34.30078125 C112.519375 34.30078125 113.179375 34.30078125 113.859375 34.30078125 C123.20727468 52.78481588 126.67811139 73.90980016 121.171875 94.30078125 C120.45837673 96.32194533 119.69248129 98.32590962 118.859375 100.30078125 C118.49714844 101.18121094 118.13492188 102.06164062 117.76171875 102.96875 C113.84489306 111.53265702 108.06071865 120.15845872 100.859375 126.30078125 C100.199375 126.30078125 99.539375 126.30078125 98.859375 126.30078125 C98.859375 126.96078125 98.859375 127.62078125 98.859375 128.30078125 C86.39673051 135.83068489 74.52385793 141.5304743 59.859375 143.30078125 C63.56046766 147.72403834 67.34833887 151.85635963 71.5390625 155.8203125 C72.859375 157.30078125 72.859375 157.30078125 72.859375 159.30078125 C73.519375 159.30078125 74.179375 159.30078125 74.859375 159.30078125 C76.5859375 161.19921875 76.5859375 161.19921875 78.484375 163.67578125 C79.11601562 164.48789062 79.74765625 165.3 80.3984375 166.13671875 C81.859375 168.30078125 81.859375 168.30078125 81.859375 170.30078125 C82.519375 170.30078125 83.179375 170.30078125 83.859375 170.30078125 C83.859375 170.96078125 83.859375 171.62078125 83.859375 172.30078125 C84.519375 172.30078125 85.179375 172.30078125 85.859375 172.30078125 C89.859375 176.77136949 89.859375 176.77136949 89.859375 179.30078125 C90.519375 179.30078125 91.179375 179.30078125 91.859375 179.30078125 C93.12890625 180.62890625 93.12890625 180.62890625 94.671875 182.55078125 C98.08656843 186.58040888 101.79212761 190.16684046 105.671875 193.73828125 C106.24719971 194.2703418 106.82252441 194.80240234 107.4152832 195.35058594 C110.41102842 198.1403329 110.41102842 198.1403329 113.859375 200.30078125 C113.859375 200.96078125 113.859375 201.62078125 113.859375 202.30078125 C114.58898437 202.56890625 115.31859375 202.83703125 116.0703125 203.11328125 C118.80538457 204.27779373 121.03949403 205.62045068 123.484375 207.30078125 C124.23976563 207.81640625 124.99515625 208.33203125 125.7734375 208.86328125 C126.46179688 209.33765625 127.15015625 209.81203125 127.859375 210.30078125 C128.849375 210.96078125 129.839375 211.62078125 130.859375 212.30078125 C130.859375 212.96078125 130.859375 213.62078125 130.859375 214.30078125 C109.58145091 220.79327604 80.99949155 221.51695492 60.82861328 211.26904297 C56.36281927 208.82801632 51.99752031 206.26559352 47.859375 203.30078125 C47.859375 202.64078125 47.859375 201.98078125 47.859375 201.30078125 C47.199375 201.30078125 46.539375 201.30078125 45.859375 201.30078125 C45.859375 200.64078125 45.859375 199.98078125 45.859375 199.30078125 C45.199375 199.30078125 44.539375 199.30078125 43.859375 199.30078125 C43.859375 198.64078125 43.859375 197.98078125 43.859375 197.30078125 C43.199375 197.30078125 42.539375 197.30078125 41.859375 197.30078125 C40.1328125 195.40234375 40.1328125 195.40234375 38.234375 192.92578125 C37.28691406 191.70761719 37.28691406 191.70761719 36.3203125 190.46484375 C34.859375 188.30078125 34.859375 188.30078125 34.859375 186.30078125 C34.199375 186.30078125 33.539375 186.30078125 32.859375 186.30078125 C31.62255859 184.95556641 31.62255859 184.95556641 30.2578125 183.08984375 C29.76796875 182.42210937 29.278125 181.754375 28.7734375 181.06640625 C28.26554687 180.36 27.75765625 179.65359375 27.234375 178.92578125 C26.4609375 177.87777344 26.4609375 177.87777344 25.671875 176.80859375 C21.859375 171.56388476 21.859375 171.56388476 21.859375 169.30078125 C21.199375 169.30078125 20.539375 169.30078125 19.859375 169.30078125 C18.57402329 167.80563651 17.35563694 166.25258006 16.171875 164.67578125 C11.46292535 158.64457219 6.60742699 153.98153688 -0.140625 150.30078125 C-0.140625 150.96078125 -0.140625 151.62078125 -0.140625 152.30078125 C-0.800625 152.30078125 -1.460625 152.30078125 -2.140625 152.30078125 C-2.511875 153.29078125 -2.511875 153.29078125 -2.890625 154.30078125 C-4.140625 157.30078125 -4.140625 157.30078125 -6.015625 160.73828125 C-11.27081783 171.26820295 -12.81137967 182.77048586 -14.41796875 194.28125 C-15.08595531 199.03985027 -15.88488351 203.76474544 -16.765625 208.48828125 C-17.00539062 209.78121094 -17.24515625 211.07414063 -17.4921875 212.40625 C-18.140625 215.30078125 -18.140625 215.30078125 -19.140625 216.30078125 C-20.95117525 216.39454178 -22.76539701 216.41822235 -24.57836914 216.41430664 C-26.32006126 216.41419334 -26.32006126 216.41419334 -28.09693909 216.41407776 C-29.99221596 216.40633583 -29.99221596 216.40633583 -31.92578125 216.3984375 C-33.21173691 216.39702255 -34.49769257 216.3956076 -35.82261658 216.39414978 C-39.24705943 216.39032543 -42.67146009 216.38049587 -46.09588623 216.3694458 C-49.58800689 216.35922989 -53.08013434 216.35465178 -56.57226562 216.34960938 C-63.42840278 216.33887352 -70.28451187 216.32179809 -77.140625 216.30078125 C-73.23497863 180.9096833 -68.8199063 146.87540704 -40.140625 122.30078125 C-39.480625 122.30078125 -38.820625 122.30078125 -38.140625 122.30078125 C-38.140625 121.64078125 -38.140625 120.98078125 -38.140625 120.30078125 C-25.16758978 112.49802138 -13.21843857 107.76705249 1.859375 105.30078125 C2.87233643 105.1301416 3.88529785 104.95950195 4.92895508 104.78369141 C14.88610505 103.21840585 24.67186074 102.95138295 34.73632812 102.91015625 C44.92145714 102.72086113 57.04449254 101.54384304 64.859375 94.30078125 C71.13721122 85.27081304 72.72157472 78.30580274 71.859375 67.30078125 C70.04845759 60.38189572 66.38667207 55.92105907 60.671875 51.67578125 C52.28445204 47.57526336 44.29881738 46.85282212 35.0625 46.90234375 C33.87009705 46.89947357 32.67769409 46.89660339 31.44915771 46.89364624 C28.94477866 46.89161583 26.44038337 46.89707357 23.93603516 46.90966797 C20.10673703 46.92579236 16.27848524 46.90975417 12.44921875 46.890625 C10.00781018 46.8926065 7.56640226 46.89644824 5.125 46.90234375 C3.9842804 46.89627106 2.84356079 46.89019836 1.66827393 46.88394165 C-6.16525531 46.93961141 -6.16525531 46.93961141 -13.140625 50.30078125 C-13.800625 51.29078125 -14.460625 52.28078125 -15.140625 53.30078125 C-15.800625 53.30078125 -16.460625 53.30078125 -17.140625 53.30078125 C-17.264375 53.96078125 -17.388125 54.62078125 -17.515625 55.30078125 C-17.97886102 57.52431414 -18.53307895 59.72930591 -19.13476562 61.91943359 C-20.26110284 66.40573747 -20.59335312 70.79673757 -20.859375 75.40234375 C-20.98710618 77.12648739 -21.11739111 78.85044341 -21.25 80.57421875 C-21.45269367 83.25744997 -21.64128992 85.93803347 -21.78710938 88.625 C-22.63080742 103.63625101 -22.63080742 103.63625101 -26.29443359 107.67529297 C-28.8576113 109.19211781 -31.35688733 110.25594816 -34.140625 111.30078125 C-36.03649832 112.48414059 -36.03649832 112.48414059 -37.6796875 113.79296875 C-38.69804687 114.57929688 -39.71640625 115.365625 -40.765625 116.17578125 C-48.21632207 121.97939009 -54.54942821 128.03982502 -59.9140625 135.83203125 C-60.31882813 136.31671875 -60.72359375 136.80140625 -61.140625 137.30078125 C-61.800625 137.30078125 -62.460625 137.30078125 -63.140625 137.30078125 C-63.39585937 137.98527344 -63.65109375 138.66976562 -63.9140625 139.375 C-65.32911608 142.75039851 -67.01321066 145.90052163 -68.765625 149.11328125 C-69.09046875 149.71076172 -69.4153125 150.30824219 -69.75 150.92382812 C-70.54441651 152.3841526 -71.34217876 153.84265616 -72.140625 155.30078125 C-72.470625 155.30078125 -72.800625 155.30078125 -73.140625 155.30078125 C-73.44493183 134.50648154 -72.18226264 113.75537272 -70.46606445 93.04125977 C-70.20118334 89.83981361 -69.94476445 86.63776908 -69.68945312 83.43554688 C-68.71500831 71.36382445 -67.57395351 59.32677704 -66.140625 47.30078125 C-66.0286377 46.34067139 -65.91665039 45.38056152 -65.80126953 44.39135742 C-64.64159106 35.39641546 -59.22989232 24.06663383 -53.140625 17.30078125 C-52.480625 17.30078125 -51.820625 17.30078125 -51.140625 17.30078125 C-50.480625 15.98078125 -49.820625 14.66078125 -49.140625 13.30078125 C-48.480625 13.30078125 -47.820625 13.30078125 -47.140625 13.30078125 C-47.140625 12.64078125 -47.140625 11.98078125 -47.140625 11.30078125 C-34.19618296 0.39629426 -16.00317168 -0.01717991 0 0 Z " fill="#0180F9" transform="translate(226.140625,127.69921875)"/>
<path d="M0 0 C-8.93284093 3.88066041 -17.22086681 6.94378077 -27 8 C-23.29890734 12.42325709 -19.51103613 16.55557838 -15.3203125 20.51953125 C-14 22 -14 22 -14 24 C-13.34 24 -12.68 24 -12 24 C-10.2734375 25.8984375 -10.2734375 25.8984375 -8.375 28.375 C-7.74335938 29.18710937 -7.11171875 29.99921875 -6.4609375 30.8359375 C-5 33 -5 33 -5 35 C-4.34 35 -3.68 35 -3 35 C-3 35.66 -3 36.32 -3 37 C-2.34 37 -1.68 37 -1 37 C3 41.47058824 3 41.47058824 3 44 C3.66 44 4.32 44 5 44 C6.26953125 45.328125 6.26953125 45.328125 7.8125 47.25 C11.22719343 51.27962763 14.93275261 54.86605921 18.8125 58.4375 C19.38782471 58.96956055 19.96314941 59.50162109 20.5559082 60.04980469 C23.55165342 62.83955165 23.55165342 62.83955165 27 65 C27 65.66 27 66.32 27 67 C28.09441406 67.4021875 28.09441406 67.4021875 29.2109375 67.8125 C31.94600957 68.97701248 34.18011903 70.31966943 36.625 72 C37.38039063 72.515625 38.13578125 73.03125 38.9140625 73.5625 C39.60242188 74.036875 40.29078125 74.51125 41 75 C41.99 75.66 42.98 76.32 44 77 C44 77.66 44 78.32 44 79 C22.72207591 85.49249479 -5.85988345 86.21617367 -26.03076172 75.96826172 C-30.49655573 73.52723507 -34.86185469 70.96481227 -39 68 C-39 67.34 -39 66.68 -39 66 C-39.66 66 -40.32 66 -41 66 C-41 65.34 -41 64.68 -41 64 C-41.66 64 -42.32 64 -43 64 C-43 63.34 -43 62.68 -43 62 C-43.66 62 -44.32 62 -45 62 C-46.7265625 60.1015625 -46.7265625 60.1015625 -48.625 57.625 C-49.25664062 56.81289063 -49.88828125 56.00078125 -50.5390625 55.1640625 C-52 53 -52 53 -52 51 C-52.66 51 -53.32 51 -54 51 C-55.23681641 49.65478516 -55.23681641 49.65478516 -56.6015625 47.7890625 C-57.09140625 47.12132812 -57.58125 46.45359375 -58.0859375 45.765625 C-58.59382813 45.05921875 -59.10171875 44.3528125 -59.625 43.625 C-60.140625 42.92632812 -60.65625 42.22765625 -61.1875 41.5078125 C-65 36.26310351 -65 36.26310351 -65 34 C-65.66 34 -66.32 34 -67 34 C-68.28535171 32.50485526 -69.50373806 30.95179881 -70.6875 29.375 C-75.39644965 23.34379094 -80.25194801 18.68075563 -87 15 C-87 15.66 -87 16.32 -87 17 C-87.66 17 -88.32 17 -89 17 C-89.268125 17.763125 -89.53625 18.52625 -89.8125 19.3125 C-90.94424112 21.87380884 -91.91223401 23.19692938 -94 25 C-94 23.35 -94 21.7 -94 20 C-93.01 19.67 -92.02 19.34 -91 19 C-90.67 17.35 -90.34 15.7 -90 14 C-89.01 13.67 -88.02 13.34 -87 13 C-87 12.34 -87 11.68 -87 11 C-86.01 11 -85.02 11 -84 11 C-83.67 10.01 -83.34 9.02 -83 8 C-80.39757586 6.35179805 -79.13751221 6 -76 6 C-76 5.01 -76 4.02 -76 3 C-75.08476562 3.01160156 -74.16953125 3.02320313 -73.2265625 3.03515625 C-72.03804687 3.04417969 -70.84953125 3.05320312 -69.625 3.0625 C-68.44164062 3.07410156 -67.25828125 3.08570313 -66.0390625 3.09765625 C-63.08078479 3.21466593 -63.08078479 3.21466593 -61 2 C-52.13148856 1.44968664 -44.1537311 1.84899047 -35.5703125 4.328125 C-32.21296508 5.20572949 -29.44440339 5.30616919 -26 5 C-25.67 4.67 -25.34 4.34 -25 4 C-22.9427083 3.68076508 -20.88386479 3.48838648 -18.8125 3.28125 C-16.9832467 3.18001957 -16.9832467 3.18001957 -16 2 C-13.66702567 1.95907063 -11.33294775 1.95758277 -9 2 C-9 1.34 -9 0.68 -9 0 C-3.375 -1.125 -3.375 -1.125 0 0 Z " fill="#014CD7" transform="translate(313,263)"/>
<path d="M0 0 C1.37871915 3.82977542 0.87113444 7.07989501 0 11 C-0.99 11.66 -1.98 12.32 -3 13 C-4.06836175 16.88425808 -4.26559897 20.83136452 -3.375 24.75 C-2.84044367 27.95733798 -4.16828439 29.43559814 -6 32 C-5.34 32.66 -4.68 33.32 -4 34 C-4 34.66 -4 35.32 -4 36 C-4.495 36.433125 -4.99 36.86625 -5.5 37.3125 C-7.24945228 38.93704926 -7.24945228 38.93704926 -7.1875 41.5 C-7.125625 42.325 -7.06375 43.15 -7 44 C-7 44.99 -7 45.98 -7 47 C-7.66 47.66 -8.32 48.32 -9 49 C-9.46290221 51.66242821 -9.46290221 51.66242821 -9.625 54.625 C-9.69976562 55.62789063 -9.77453125 56.63078125 -9.8515625 57.6640625 C-9.90054688 58.43492187 -9.94953125 59.20578125 -10 60 C-8.82050781 59.75443359 -8.82050781 59.75443359 -7.6171875 59.50390625 C-3.09153151 58.87344229 1.31329568 58.89284476 5.875 58.9375 C6.75414062 58.94201172 7.63328125 58.94652344 8.5390625 58.95117188 C10.69273803 58.96287663 12.84637817 58.98080931 15 59 C14.67 58.01 14.34 57.02 14 56 C13.44578541 47.158344 14.40766906 38.68673398 16 30 C19.25 29.1875 19.25 29.1875 23 29 C25.4375 31.4375 25.4375 31.4375 27 34 C26.34 35.32 25.68 36.64 25 38 C25.99 38.495 25.99 38.495 27 39 C26.34 39.66 25.68 40.32 25 41 C24.49779568 43.55883858 24.49779568 43.55883858 24.3125 46.4375 C24.22613281 47.40558594 24.13976562 48.37367188 24.05078125 49.37109375 C23.85123984 52.11120386 23.85123984 52.11120386 25 55 C24.01 56.65 23.02 58.3 22 60 C29.92 59.505 29.92 59.505 38 59 C38.33 58.01 38.66 57.02 39 56 C39.99 55.67 40.98 55.34 42 55 C42.99 55.495 42.99 55.495 44 56 C43.938125 54.845 43.87625 53.69 43.8125 52.5 C43.77724799 46.99187295 44.87885823 41.77346743 46.02075195 36.41015625 C46.98148872 32.62448382 46.98148872 32.62448382 46 29 C46.28875 28.154375 46.5775 27.30875 46.875 26.4375 C48.22944857 22.29890714 48.63515554 18.3205265 49 14 C50.485 13.505 50.485 13.505 52 13 C52.33 11.02 52.66 9.04 53 7 C53.99 7 54.98 7 56 7 C55.31426306 10.79954242 54.2792232 14.38061747 53.125 18.0625 C50.93178874 25.62393232 49.81119614 33.19517183 48.72265625 40.98046875 C48.05466969 45.73906902 47.25574149 50.46396419 46.375 55.1875 C46.13523438 56.48042969 45.89546875 57.77335937 45.6484375 59.10546875 C45 62 45 62 44 63 C42.18944975 63.09376053 40.37522799 63.1174411 38.56225586 63.11352539 C36.82056374 63.11341209 36.82056374 63.11341209 35.04368591 63.11329651 C33.14840904 63.10555458 33.14840904 63.10555458 31.21484375 63.09765625 C29.92888809 63.0962413 28.64293243 63.09482635 27.31800842 63.09336853 C23.89356557 63.08954418 20.46916491 63.07971462 17.04473877 63.06866455 C13.55261811 63.05844864 10.06049066 63.05387053 6.56835938 63.04882812 C-0.28777778 63.03809227 -7.14388687 63.02101684 -14 63 C-8.4405937 12.62332114 -8.4405937 12.62332114 0 0 Z " fill="#0B57C8" transform="translate(163,281)"/>
<path d="M0 0 C0.495 0.99 0.495 0.99 1 2 C0.34 2 -0.32 2 -1 2 C-1 2.66 -1 3.32 -1 4 C-1.99 4 -2.98 4 -4 4 C-4 5.32 -4 6.64 -4 8 C-5.84730713 8.029729 -5.84730713 8.029729 -7.73193359 8.06005859 C-12.29057661 8.13599182 -16.84889527 8.22472763 -21.40722656 8.31738281 C-23.38209644 8.35572349 -25.35703736 8.3905673 -27.33203125 8.421875 C-30.16692545 8.46741547 -33.0013283 8.52542715 -35.8359375 8.5859375 C-36.72243988 8.59748871 -37.60894226 8.60903992 -38.52230835 8.62094116 C-39.34300812 8.64081085 -40.16370789 8.66068054 -41.00927734 8.68115234 C-41.73319672 8.69447601 -42.45711609 8.70779968 -43.20297241 8.7215271 C-45.25153495 8.85787921 -45.25153495 8.85787921 -47 11 C-49.125 11.625 -49.125 11.625 -51 12 C-51.33 13.32 -51.66 14.64 -52 16 C-52.74765625 16.13277344 -53.4953125 16.26554687 -54.265625 16.40234375 C-55.25046875 16.57894531 -56.2353125 16.75554687 -57.25 16.9375 C-58.22453125 17.11152344 -59.1990625 17.28554687 -60.203125 17.46484375 C-62.49721795 17.90379729 -64.74291971 18.40348592 -67 19 C-67.33 20.32 -67.66 21.64 -68 23 C-69.32 23.33 -70.64 23.66 -72 24 C-72 24.66 -72 25.32 -72 26 C-70.68 26.33 -69.36 26.66 -68 27 C-70 30 -70 30 -72.42578125 30.58984375 C-73.37839844 30.70457031 -74.33101562 30.81929687 -75.3125 30.9375 C-79.92268774 31.64536347 -82.66477124 32.54976335 -86 36 C-86.495 34.515 -86.495 34.515 -87 33 C-86.01 33 -85.02 33 -84 33 C-84.66 32.01 -85.32 31.02 -86 30 C-86.68177416 28.67432801 -87.35191436 27.34246312 -88 26 C-86.71034824 24.62437146 -85.37310707 23.29233607 -84 22 C-83.34 22 -82.68 22 -82 22 C-82 21.01 -82 20.02 -82 19 C-84.64 19 -87.28 19 -90 19 C-81.66577018 12.25597955 -70.31117397 10.68659413 -60 9 C-58.98703857 8.82936035 -57.97407715 8.6587207 -56.93041992 8.48291016 C-46.97326995 6.9176246 -37.18751426 6.6506017 -27.12304688 6.609375 C-17.6108961 6.43258748 -8.09476799 5.396512 0 0 Z " fill="#0375FA" transform="translate(288,224)"/>
<path d="M0 0 C0.99 0 1.98 0 3 0 C2.31426306 3.79954242 1.2792232 7.38061747 0.125 11.0625 C-2.06821126 18.62393232 -3.18880386 26.19517183 -4.27734375 33.98046875 C-4.94533031 38.73906902 -5.74425851 43.46396419 -6.625 48.1875 C-6.86476562 49.48042969 -7.10453125 50.77335937 -7.3515625 52.10546875 C-8 55 -8 55 -9 56 C-10.81055025 56.09376053 -12.62477201 56.1174411 -14.43774414 56.11352539 C-16.17943626 56.11341209 -16.17943626 56.11341209 -17.95631409 56.11329651 C-19.85159096 56.10555458 -19.85159096 56.10555458 -21.78515625 56.09765625 C-23.07111191 56.0962413 -24.35706757 56.09482635 -25.68199158 56.09336853 C-29.10643443 56.08954418 -32.53083509 56.07971462 -35.95526123 56.06866455 C-39.44738189 56.05844864 -42.93950934 56.05387053 -46.43164062 56.04882812 C-53.28777778 56.03809227 -60.14388687 56.02101684 -67 56 C-67 54.35 -67 52.7 -67 51 C-66.67 51.99 -66.34 52.98 -66 54 C-47.19 54 -28.38 54 -9 54 C-9 49.38 -9 44.76 -9 40 C-8.56622248 36.9905153 -8.11783691 34.18525269 -7.4375 31.25 C-6.08392485 26.54768507 -6.08392485 26.54768507 -7 22 C-6.71125 21.154375 -6.4225 20.30875 -6.125 19.4375 C-4.77055143 15.29890714 -4.36484446 11.3205265 -4 7 C-2.515 6.505 -2.515 6.505 -1 6 C-0.67 4.02 -0.34 2.04 0 0 Z " fill="#0B3281" transform="translate(216,288)"/>
<path d="M0 0 C0.33 0 0.66 0 1 0 C1 1.98 1 3.96 1 6 C1.66 6.33 2.32 6.66 3 7 C3.05383848 9.45862401 3.09359038 11.9160755 3.125 14.375 C3.14175781 15.07367188 3.15851563 15.77234375 3.17578125 16.4921875 C3.19344267 18.32897486 3.10303261 20.16601963 3 22 C2.34 22.66 1.68 23.32 1 24 C0.75430728 26.79216791 0.62636862 29.49240605 0.5859375 32.2890625 C0.56657135 33.10748627 0.5472052 33.92591003 0.5272522 34.76913452 C0.46738918 37.38764976 0.42104468 40.00620881 0.375 42.625 C0.33682636 44.39845686 0.29777499 46.17189505 0.2578125 47.9453125 C0.16168229 52.29672375 0.07767649 56.64822179 0 61 C0.26554688 60.36578125 0.53109375 59.7315625 0.8046875 59.078125 C2 57 2 57 5.125 55.75 C6.07375 55.5025 7.0225 55.255 8 55 C8 55.66 8 56.32 8 57 C7.34 57 6.68 57 6 57 C5.74476563 57.68449219 5.48953125 58.36898437 5.2265625 59.07421875 C3.81150892 62.44961726 2.12741434 65.59974038 0.375 68.8125 C0.05015625 69.40998047 -0.2746875 70.00746094 -0.609375 70.62304688 C-1.40379151 72.08337135 -2.20155376 73.54187491 -3 75 C-3.33 75 -3.66 75 -4 75 C-4.36742783 49.89243171 -2.30156829 24.97515539 0 0 Z " fill="#106EC7" transform="translate(157,208)"/>
<path d="M0 0 C0.495 0.99 0.495 0.99 1 2 C0.34 2 -0.32 2 -1 2 C-1 2.66 -1 3.32 -1 4 C-1.99 4 -2.98 4 -4 4 C-4 5.32 -4 6.64 -4 8 C-5.84730713 8.029729 -5.84730713 8.029729 -7.73193359 8.06005859 C-12.29057661 8.13599182 -16.84889527 8.22472763 -21.40722656 8.31738281 C-23.38209644 8.35572349 -25.35703736 8.3905673 -27.33203125 8.421875 C-30.16692545 8.46741547 -33.0013283 8.52542715 -35.8359375 8.5859375 C-36.72243988 8.59748871 -37.60894226 8.60903992 -38.52230835 8.62094116 C-39.34300812 8.64081085 -40.16370789 8.66068054 -41.00927734 8.68115234 C-41.73319672 8.69447601 -42.45711609 8.70779968 -43.20297241 8.7215271 C-45.25153495 8.85787921 -45.25153495 8.85787921 -47 11 C-49.2578125 11.2734375 -49.2578125 11.2734375 -52.125 11.375 C-57.41321389 11.726695 -62.3194644 12.63706386 -67.4375 13.9375 C-68.11119629 14.10749512 -68.78489258 14.27749023 -69.47900391 14.45263672 C-72.27832085 15.18620741 -74.96400332 15.98514338 -77.640625 17.08984375 C-80.25332277 18.09772219 -82.52718671 18.40217494 -85.3125 18.625 C-86.19550781 18.69976562 -87.07851562 18.77453125 -87.98828125 18.8515625 C-88.65214844 18.90054688 -89.31601563 18.94953125 -90 19 C-81.66577018 12.25597955 -70.31117397 10.68659413 -60 9 C-58.98703857 8.82936035 -57.97407715 8.6587207 -56.93041992 8.48291016 C-46.97326995 6.9176246 -37.18751426 6.6506017 -27.12304688 6.609375 C-17.6108961 6.43258748 -8.09476799 5.396512 0 0 Z " fill="#0D65BA" transform="translate(288,224)"/>
<path d="M0 0 C0 0.33 0 0.66 0 1 C1.98 1.33 3.96 1.66 6 2 C6 2.66 6 3.32 6 4 C7.98 4.33 9.96 4.66 12 5 C11.67 5.66 11.34 6.32 11 7 C9.58318366 6.68817931 8.16655349 6.37551263 6.75 6.0625 C5.96109375 5.88847656 5.1721875 5.71445313 4.359375 5.53515625 C2.95784841 5.21726032 1.56101161 4.87447752 0.17926025 4.47938538 C-2.33340308 3.92665926 -4.65469185 3.83839116 -7.22753906 3.79467773 C-8.26831604 3.77473251 -9.30909302 3.75478729 -10.38140869 3.73423767 C-11.49820007 3.71752518 -12.61499146 3.70081268 -13.765625 3.68359375 C-14.91415955 3.66281265 -16.06269409 3.64203156 -17.24603271 3.62062073 C-20.91396111 3.55525007 -24.58196093 3.49629806 -28.25 3.4375 C-30.73698654 3.39430293 -33.22396587 3.35068825 -35.7109375 3.30664062 C-41.80721622 3.19958142 -47.90356595 3.09779175 -54 3 C-53.67 2.34 -53.34 1.68 -53 1 C-35.33123111 0.4019214 -17.68173704 -0.19336043 0 0 Z " fill="#1061AA" transform="translate(276,171)"/>
<path d="M0 0 C2.97 0.495 2.97 0.495 6 1 C5.93941406 1.64324219 5.87882813 2.28648437 5.81640625 2.94921875 C5.13534888 10.29416058 4.54964364 17.64413091 4 25 C2.02 25 0.04 25 -2 25 C-2.24911914 16.41922945 -1.69882188 8.41826913 0 0 Z " fill="#63CAFD" transform="translate(181,312)"/>
<path d="M0 0 C6.43993285 6.43993285 5.37143354 19.48699865 5.4375 27.9375 C5.39155916 40.92405602 3.40775071 51.55758801 -3 63 C-3.33 63 -3.66 63 -4 63 C-3.67 60.03 -3.34 57.06 -3 54 C-2.34 54 -1.68 54 -1 54 C-1 52.02 -1 50.04 -1 48 C-0.34 48 0.32 48 1 48 C1.78889545 41.21404661 2.19258308 34.51852654 2.1875 27.6875 C2.18814453 26.77685791 2.18878906 25.86621582 2.18945312 24.92797852 C2.14037308 18.63178963 1.62161112 12.68800816 0.4375 6.49609375 C0 4 0 4 0 0 Z " fill="#145DBE" transform="translate(344,173)"/>
<path d="M0 0 C0.99 0 1.98 0 3 0 C2.31426306 3.79954242 1.2792232 7.38061747 0.125 11.0625 C-2.36478715 19.5911527 -3.53475389 28.2491312 -4.67456055 37.0456543 C-5 39 -5 39 -6 42 C-6.66 42 -7.32 42 -8 42 C-8.33 42.66 -8.66 43.32 -9 44 C-8.855625 42.81921875 -8.71125 41.6384375 -8.5625 40.421875 C-8.37487629 38.86459823 -8.18738313 37.30730573 -8 35.75 C-7.90460938 34.97269531 -7.80921875 34.19539063 -7.7109375 33.39453125 C-7.62070313 32.64042969 -7.53046875 31.88632812 -7.4375 31.109375 C-7.35371094 30.41811523 -7.26992187 29.72685547 -7.18359375 29.01464844 C-7.00155914 27.01710903 -7 25.00581661 -7 23 C-6.56175253 20.63787372 -6.07817403 18.28394021 -5.5625 15.9375 C-5.29566406 14.70902344 -5.02882812 13.48054688 -4.75390625 12.21484375 C-4 9 -4 9 -3 6 C-2.34 6 -1.68 6 -1 6 C-0.67 4.02 -0.34 2.04 0 0 Z " fill="#0858CB" transform="translate(216,288)"/>
<path d="M0 0 C1.65 0 3.3 0 5 0 C4.46449173 4.28406618 3.33320512 7.91801346 1.765625 11.8984375 C0.56095725 15.20512754 -0.20467678 18.5739923 -1 22 C-2.98 22 -4.96 22 -7 22 C-5.83107109 14.1140915 -3.26456103 7.25181115 0 0 Z " fill="#6BCCFD" transform="translate(191,276)"/>
<path d="M0 0 C0.33 1.65 0.66 3.3 1 5 C-0.485 5.37125 -0.485 5.37125 -2 5.75 C-4.94416611 6.56485002 -7.39695552 7.70321801 -10.0625 9.1875 C-13.69918206 11.10863224 -15.97400658 11.20779803 -20 10 C-20 9.34 -20 8.68 -20 8 C-19.360625 7.731875 -18.72125 7.46375 -18.0625 7.1875 C-15.66868314 6.11332248 -15.66868314 6.11332248 -15 3 C-9.72006588 0.54209963 -5.78159553 -0.36134972 0 0 Z " fill="#0F76EF" transform="translate(236,240)"/>
<path d="M0 0 C1.32 0 2.64 0 4 0 C4.33 0.99 4.66 1.98 5 3 C5.99 3 6.98 3 8 3 C8 3.66 8 4.32 8 5 C9.32 5.33 10.64 5.66 12 6 C12 6.66 12 7.32 12 8 C11.01 8 10.02 8 9 8 C9.05124023 8.61931396 9.10248047 9.23862793 9.15527344 9.87670898 C9.37752364 12.72900849 9.5639312 15.58262087 9.75 18.4375 C9.83121094 19.41138672 9.91242188 20.38527344 9.99609375 21.38867188 C10.40948971 28.25563802 9.39297473 33.00230793 6 39 C5.34 39 4.68 39 4 39 C3.34 40.32 2.68 41.64 2 43 C0.68 42.67 -0.64 42.34 -2 42 C-1.2575 41.360625 -0.515 40.72125 0.25 40.0625 C5.63189882 34.54260377 7.26179173 28.61445059 7.5 21 C7.32043718 14.83500971 6.12318047 10.28366015 3 5 C2.13375 3.4840625 2.13375 3.4840625 1.25 1.9375 C0.8375 1.298125 0.425 0.65875 0 0 Z " fill="#0C60C0" transform="translate(291,181)"/>
<path d="M0 0 C0.33 0 0.66 0 1 0 C1.16834933 1.77067416 1.33461909 3.54154612 1.5 5.3125 C1.5928125 6.29863281 1.685625 7.28476563 1.78125 8.30078125 C2.4235681 16.22652782 2.4235681 16.22652782 1.1015625 18.640625 C-0.55755426 22.19419422 -0.99900351 25.89820526 -1.625 29.75 C-1.7590625 30.54277344 -1.893125 31.33554688 -2.03125 32.15234375 C-2.35987298 34.10060858 -2.68070705 36.05018439 -3 38 C-3.33 38 -3.66 38 -4 38 C-4.3338183 25.09235913 -3.81242755 12.43043604 0 0 Z M0 19 C2 20 2 20 2 20 Z " fill="#169DDE" transform="translate(163,164)"/>
<path d="M0 0 C2.3125 2.5 2.3125 2.5 4 5 C3.34 6.32 2.68 7.64 2 9 C2.66 9.33 3.32 9.66 4 10 C3.34 10.66 2.68 11.32 2 12 C1.53709779 14.66242821 1.53709779 14.66242821 1.375 17.625 C1.30023438 18.62789063 1.22546875 19.63078125 1.1484375 20.6640625 C1.09945312 21.43492187 1.05046875 22.20578125 1 23 C0.67 23 0.34 23 0 23 C-1.1710655 15.85650045 -0.59295252 10.04321983 1 3 C-1.97 2.505 -1.97 2.505 -5 2 C-4.979375 2.96035156 -4.95875 3.92070312 -4.9375 4.91015625 C-4.9375 9.46110569 -5.46168181 13.92362922 -6 18.4375 C-6.09539062 19.26443359 -6.19078125 20.09136719 -6.2890625 20.94335938 C-6.52250666 22.96265139 -6.76075696 24.98138682 -7 27 C-7.66 27 -8.32 27 -9 27 C-9.2573915 18.2629884 -9.17085053 9.52259838 -7 1 C-4.37869511 -0.31065245 -2.90828303 -0.415469 0 0 Z " fill="#0867DD" transform="translate(186,310)"/>
<path d="M0 0 C12.56556849 -0.85674331 23.88948875 4.85363375 35 10 C35 10.33 35 10.66 35 11 C33.14375 10.9690625 33.14375 10.9690625 31.25 10.9375 C28.3359175 10.93233319 25.79046673 11.06984442 23 12 C22.95875 11.38125 22.9175 10.7625 22.875 10.125 C22.58625 9.42375 22.2975 8.7225 22 8 C19.03739474 6.76242123 19.03739474 6.76242123 16 6 C15.67 5.67 15.34 5.34 15 5 C13.23709093 4.62702089 11.46408188 4.30119534 9.6875 4 C6.41937214 3.44149484 3.2049556 2.85262477 0 2 C0 1.34 0 0.68 0 0 Z " fill="#0D73B9" transform="translate(281,129)"/>
<path d="M0 0 C1.45823212 -0.0270043 2.91660675 -0.04639787 4.375 -0.0625 C5.18710937 -0.07410156 5.99921875 -0.08570313 6.8359375 -0.09765625 C9 0 9 0 11 1 C12.46499131 1.09572746 13.93422965 1.13074077 15.40234375 1.1328125 C16.28752686 1.13474609 17.17270996 1.13667969 18.0847168 1.13867188 C19.02613525 1.13416016 19.96755371 1.12964844 20.9375 1.125 C21.89374268 1.12306641 22.84998535 1.12113281 23.83520508 1.11914062 C29.47416573 1.08457817 35.01860533 0.86056334 40.625 0.22265625 C44.74465127 -0.16356106 48.86679942 -0.08069155 53 0 C41.24806149 7.83462567 17.75079684 4.78038268 4.37109375 2.6328125 C2 2 2 2 0 0 Z " fill="#0C3790" transform="translate(300,342)"/>
<path d="M0 0 C0.33 0 0.66 0 1 0 C1.1485977 3.67366542 1.09343804 7.32477042 1 11 C0.98839844 11.75539062 0.97679687 12.51078125 0.96484375 13.2890625 C0.61003803 28.19090272 0.61003803 28.19090272 -3.1484375 32.4140625 C-5.71768977 33.91857959 -8.20797825 34.97967401 -11 36 C-12.23334894 36.75210102 -13.44740833 37.53829013 -14.625 38.375 C-15.40875 38.91125 -16.1925 39.4475 -17 40 C-17 39.01 -17 38.02 -17 37 C-16.34 37 -15.68 37 -15 37 C-15 36.01 -15 35.02 -15 34 C-13.5459375 33.566875 -13.5459375 33.566875 -12.0625 33.125 C-8.89335797 32.35785318 -8.89335797 32.35785318 -8 30 C-6.68 30 -5.36 30 -4 30 C-4 28.35 -4 26.7 -4 25 C-3.34 25 -2.68 25 -2 25 C-2.02320313 23.865625 -2.04640625 22.73125 -2.0703125 21.5625 C-2.08908814 20.04167332 -2.1072864 18.52083943 -2.125 17 C-2.14175781 16.25621094 -2.15851563 15.51242188 -2.17578125 14.74609375 C-2.22144715 9.49451557 -1.45712451 5.0483054 0 0 Z " fill="#0D5CAE" transform="translate(203,203)"/>
<path d="M0 0 C1.37871915 3.82977542 0.87113444 7.07989501 0 11 C-0.99 11.66 -1.98 12.32 -3 13 C-4.06836175 16.88425808 -4.26559897 20.83136452 -3.375 24.75 C-2.84044367 27.95733798 -4.16828439 29.43559814 -6 32 C-5.34 32.66 -4.68 33.32 -4 34 C-4 34.66 -4 35.32 -4 36 C-6 37.625 -6 37.625 -8 39 C-8.02708567 37.39592672 -8.04643483 35.7917215 -8.0625 34.1875 C-8.07410156 33.29417969 -8.08570313 32.40085937 -8.09765625 31.48046875 C-8 29 -8 29 -7 26 C-6.71204185 23.64786661 -6.44392766 21.29327933 -6.1875 18.9375 C-4.45069588 4.45069588 -4.45069588 4.45069588 0 0 Z " fill="#066BED" transform="translate(163,281)"/>
<path d="M0 0 C-2.30368736 1.06652192 -4.64018187 2.06421005 -7 3 C-7.66 2.67 -8.32 2.34 -9 2 C-9.33 2.99 -9.66 3.98 -10 5 C-10.99 5.33 -11.98 5.66 -13 6 C-13 7.98 -13 9.96 -13 12 C-12.01 12.33 -11.02 12.66 -10 13 C-10.33 14.32 -10.66 15.64 -11 17 C-12.39973958 15.828125 -13.79947917 14.65625 -15.19921875 13.484375 C-17.44676133 11.63173686 -19.72258471 9.81572463 -22 8 C-6.97959184 -2.32653061 -6.97959184 -2.32653061 0 0 Z " fill="#032794" transform="translate(248,269)"/>
<path d="M0 0 C3.96 0 7.92 0 12 0 C12.33 0.66 12.66 1.32 13 2 C12.17757812 2.14695312 11.35515625 2.29390625 10.5078125 2.4453125 C2.87013862 3.97990286 -3.88545012 5.98293343 -10 11 C-10.33 11.99 -10.66 12.98 -11 14 C-11.66 14 -12.32 14 -13 14 C-13.4021875 15.1446875 -13.4021875 15.1446875 -13.8125 16.3125 C-14.94424112 18.87380884 -15.91223401 20.19692938 -18 22 C-18 20.35 -18 18.7 -18 17 C-17.01 16.67 -16.02 16.34 -15 16 C-14.67 14.35 -14.34 12.7 -14 11 C-13.01 10.67 -12.02 10.34 -11 10 C-11 9.34 -11 8.68 -11 8 C-10.01 8 -9.02 8 -8 8 C-7.67 7.01 -7.34 6.02 -7 5 C-4.39757586 3.35179805 -3.13751221 3 0 3 C0 2.01 0 1.02 0 0 Z " fill="#0A63E6" transform="translate(237,266)"/>
<path d="M0 0 C-0.33 1.65 -0.66 3.3 -1 5 C-1.61875 5.061875 -2.2375 5.12375 -2.875 5.1875 C-5.27761141 5.828919 -5.27761141 5.828919 -6.25 8.5625 C-6.4975 9.366875 -6.745 10.17125 -7 11 C-6.34 11.33 -5.68 11.66 -5 12 C-5 12.99 -5 13.98 -5 15 C-8.31044803 16.10348268 -10.65506316 15.99444068 -14 15 C-14.33 14.34 -14.66 13.68 -15 13 C-15.66 13 -16.32 13 -17 13 C-16.44271087 9.65626525 -15.64826111 6.96687001 -14 4 C-13.01 4 -12.02 4 -11 4 C-12.33333333 6.66666667 -13.66666667 9.33333333 -15 12 C-13.68 12 -12.36 12 -11 12 C-10.7215625 10.9790625 -10.7215625 10.9790625 -10.4375 9.9375 C-8.580427 6.14261169 -4.6288115 0 0 0 Z " fill="#086EF1" transform="translate(213,256)"/>
<path d="M0 0 C0.79019531 0.10183594 1.58039063 0.20367187 2.39453125 0.30859375 C2.98621094 0.39238281 3.57789063 0.47617188 4.1875 0.5625 C4.1875 0.8925 4.1875 1.2225 4.1875 1.5625 C1.2175 1.5625 -1.7525 1.5625 -4.8125 1.5625 C-5.1425 2.8825 -5.4725 4.2025 -5.8125 5.5625 C-5.8125 4.9025 -5.8125 4.2425 -5.8125 3.5625 C-6.781875 3.871875 -7.75125 4.18125 -8.75 4.5 C-12.46069046 5.59806146 -16.03822312 5.87741551 -19.89453125 6.0234375 C-22.00216187 6.37191897 -22.00216187 6.37191897 -22.88671875 8.4765625 C-23.19222656 9.16492188 -23.49773437 9.85328125 -23.8125 10.5625 C-26.8125 12.5625 -26.8125 12.5625 -29 12.1875 C-29.598125 11.98125 -30.19625 11.775 -30.8125 11.5625 C-30.1525 11.5625 -29.4925 11.5625 -28.8125 11.5625 C-28.8125 10.9025 -28.8125 10.2425 -28.8125 9.5625 C-21.42192184 3.33662613 -9.66155082 -1.29782026 0 0 Z " fill="#119ACD" transform="translate(207.8125,129.4375)"/>
<path d="M0 0 C3.54792984 1.30383288 6.51253206 2.86084678 9.625 5 C10.38039063 5.515625 11.13578125 6.03125 11.9140625 6.5625 C12.60242188 7.036875 13.29078125 7.51125 14 8 C14.99 8.66 15.98 9.32 17 10 C17 10.66 17 11.32 17 12 C9.08 12.495 9.08 12.495 1 13 C1 12.34 1 11.68 1 11 C2.32 10.67 3.64 10.34 5 10 C5 8.35 5 6.7 5 5 C2.525 4.01 2.525 4.01 0 3 C0 2.01 0 1.02 0 0 Z " fill="#0751CE" transform="translate(340,330)"/>
<path d="M0 0 C9.57 0 19.14 0 29 0 C29 0.33 29 0.66 29 1 C28.40574219 1.03738281 27.81148438 1.07476562 27.19921875 1.11328125 C22.39908573 1.4940072 17.99791351 2.19178998 13.375 3.5625 C8.71034487 4.9293833 4.84141398 5.2740423 0 5 C0.66 4.01 1.32 3.02 2 2 C1.34 1.34 0.68 0.68 0 0 Z " fill="#0976F0" transform="translate(243,232)"/>
<path d="M0 0 C0.495 0.99 0.495 0.99 1 2 C0.34 2 -0.32 2 -1 2 C-1 2.66 -1 3.32 -1 4 C-1.99 4 -2.98 4 -4 4 C-4 5.32 -4 6.64 -4 8 C-19.18 8.33 -34.36 8.66 -50 9 C-45.85193314 6.92596657 -44.02631052 6.7499439 -39.50390625 6.7265625 C-38.22193359 6.7059375 -36.93996094 6.6853125 -35.61914062 6.6640625 C-32.94971431 6.63444156 -30.28098285 6.61993221 -27.61132812 6.609375 C-17.91654089 6.43547747 -8.26026659 5.50684439 0 0 Z " fill="#105AB0" transform="translate(288,224)"/>
<path d="M0 0 C2.2425518 1.1212759 3.10891162 2.19609474 4.6875 4.125 C7.49097758 7.48225093 10.50375001 10.51545185 13.6796875 13.51953125 C15 15 15 15 15 17 C15.66 17 16.32 17 17 17 C16.67 17.66 16.34 18.32 16 19 C12.28631113 17.76210371 11.22645819 16.14775123 9 13 C9 12.34 9 11.68 9 11 C7.865625 10.87625 6.73125 10.7525 5.5625 10.625 C3.7990625 10.315625 3.7990625 10.315625 2 10 C1.67 9.34 1.34 8.68 1 8 C0.34 7.01 -0.32 6.02 -1 5 C-0.625 2.3125 -0.625 2.3125 0 0 Z " fill="#062F9D" transform="translate(284,270)"/>
<path d="M0 0 C-8.82864662 3.93208631 -16.67644747 6.66758567 -26.3671875 7.578125 C-27.23601562 7.71734375 -28.10484375 7.8565625 -29 8 C-29.33 8.66 -29.66 9.32 -30 10 C-30.66 10 -31.32 10 -32 10 C-32 9.01 -32 8.02 -32 7 C-26.85744882 4.53586089 -22.66172072 3.58569525 -17 3 C-16.67 2.67 -16.34 2.34 -16 2 C-13.66702567 1.95907063 -11.33294775 1.95758277 -9 2 C-9 1.34 -9 0.68 -9 0 C-3.375 -1.125 -3.375 -1.125 0 0 Z " fill="#0B4DBC" transform="translate(313,263)"/>
<path d="M0 0 C0.99 0.66 1.98 1.32 3 2 C5.75218977 2.24073135 8.41217466 2.37282688 11.16796875 2.4140625 C11.96278152 2.43342865 12.7575943 2.4527948 13.57649231 2.4727478 C16.11338595 2.53249442 18.65032509 2.57890883 21.1875 2.625 C22.90822284 2.66318435 24.62892665 2.70223635 26.34960938 2.7421875 C30.56625165 2.83819179 34.7829834 2.92224076 39 3 C39 3.33 39 3.66 39 4 C18.21 4.495 18.21 4.495 -3 5 C-3.33 5.66 -3.66 6.32 -4 7 C-4 5.68 -4 4.36 -4 3 C-2 1.25 -2 1.25 0 0 Z " fill="#0C8EEF" transform="translate(217,168)"/>
<path d="M0 0 C0.33 0 0.66 0 1 0 C1.33 9.9 1.66 19.8 2 30 C2.66 30 3.32 30 4 30 C3.55090939 31.48199902 3.09043436 32.96055236 2.625 34.4375 C2.36976563 35.26121094 2.11453125 36.08492188 1.8515625 36.93359375 C1 39 1 39 -1 40 C-1.19539345 26.64811395 -0.59518526 13.33626552 0 0 Z " fill="#0E4991" transform="translate(154,243)"/>
<path d="M0 0 C0.33 0 0.66 0 1 0 C1.02712066 1.43739513 1.04645067 2.87493863 1.0625 4.3125 C1.07410156 5.11300781 1.08570313 5.91351563 1.09765625 6.73828125 C1 9 1 9 0 12 C-0.070673 14.51030498 -0.09356101 16.99122582 -0.0625 19.5 C-0.05798828 20.17675781 -0.05347656 20.85351562 -0.04882812 21.55078125 C-0.03628863 23.36721714 -0.01840932 25.18361412 0 27 C0 27.99 0 28.98 0 30 C-0.99 30.66 -1.98 31.32 -3 32 C-4.64511118 20.90661514 -2.94616558 10.73246031 0 0 Z " fill="#0B66E1" transform="translate(156,298)"/>
<path d="M0 0 C0.73734375 0.08765625 1.4746875 0.1753125 2.234375 0.265625 C1.84765625 0.70132813 1.4609375 1.13703125 1.0625 1.5859375 C-1.50341335 4.52022455 -3.89018539 7.35038822 -5.890625 10.703125 C-6.509375 11.54875 -7.128125 12.394375 -7.765625 13.265625 C-9.085625 13.265625 -10.405625 13.265625 -11.765625 13.265625 C-11.175507 9.48192723 -9.50117226 7.37493876 -7.015625 4.515625 C-6.34015625 3.71640625 -5.6646875 2.9171875 -4.96875 2.09375 C-2.765625 0.265625 -2.765625 0.265625 0 0 Z " fill="#70CBFE" transform="translate(209.765625,254.734375)"/>
<path d="M0 0 C0.66 0.33 1.32 0.66 2 1 C1.34 1.66 0.68 2.32 0 3 C0.33 3.99 0.66 4.98 1 6 C1.66 6 2.32 6 3 6 C3 6.66 3 7.32 3 8 C4.65 7.34 6.3 6.68 8 6 C8.66 7.98 9.32 9.96 10 12 C4.72611976 12.50227431 2.08984305 11.32894202 -2 8 C-2.33 7.01 -2.66 6.02 -3 5 C-1.5625 2.3125 -1.5625 2.3125 0 0 Z " fill="#0758D8" transform="translate(278,324)"/>
<path d="M0 0 C2.2096139 3.31442085 2.20470689 4.63163798 1.6171875 8.46484375 C0.31493595 13.81396561 -1.65431689 19.02364424 -4 24 C-4.66 24.33 -5.32 24.66 -6 25 C-5.505 20.545 -5.505 20.545 -5 16 C-4.34 16 -3.68 16 -3 16 C-3 14.02 -3 12.04 -3 10 C-2.34 10 -1.68 10 -1 10 C-0.67 6.7 -0.34 3.4 0 0 Z " fill="#0D50B2" transform="translate(346,211)"/>
<path d="M0 0 C1.32 0.33 2.64 0.66 4 1 C2.71034824 2.37562854 1.37310707 3.70766393 0 5 C-0.66 5 -1.32 5 -2 5 C-2 5.66 -2 6.32 -2 7 C-3.6796875 8.32421875 -3.6796875 8.32421875 -5.875 9.6875 C-6.95394531 10.37392578 -6.95394531 10.37392578 -8.0546875 11.07421875 C-9.01761719 11.53248047 -9.01761719 11.53248047 -10 12 C-10.66 11.67 -11.32 11.34 -12 11 C-11.67 10.01 -11.34 9.02 -11 8 C-9.66666667 7.33333333 -8.33333333 6.66666667 -7 6 C-6.67 5.01 -6.34 4.02 -6 3 C-4.02 3 -2.04 3 0 3 C0 2.01 0 1.02 0 0 Z " fill="#0845AB" transform="translate(327,249)"/>
<path d="M0 0 C0 0.66 0 1.32 0 2 C-0.66 2 -1.32 2 -2 2 C-2.226875 2.598125 -2.45375 3.19625 -2.6875 3.8125 C-4.35609042 6.59348403 -6.1283832 7.5641916 -9 9 C-9.66 9 -10.32 9 -11 9 C-11.33 10.32 -11.66 11.64 -12 13 C-12.33 12.34 -12.66 11.68 -13 11 C-13.66 10.67 -14.32 10.34 -15 10 C-13.625 8.5 -13.625 8.5 -12 7 C-11.34 7 -10.68 7 -10 7 C-10 6.34 -10 5.68 -10 5 C-8.3203125 3.7109375 -8.3203125 3.7109375 -6.125 2.375 C-5.40570313 1.92898437 -4.68640625 1.48296875 -3.9453125 1.0234375 C-2 0 -2 0 0 0 Z " fill="#0B65BF" transform="translate(198,243)"/>
<path d="M0 0 C1.32 0 2.64 0 4 0 C2.40956621 5.08938811 -0.7446951 8.87456643 -4 13 C-5.4783226 10.04335481 -5.06032783 7.25770263 -5 4 C-3.35 4 -1.7 4 0 4 C0 2.68 0 1.36 0 0 Z " fill="#0952C2" transform="translate(336,236)"/>
<path d="M0 0 C0.66 0 1.32 0 2 0 C3.125 3.75 3.125 3.75 2 6 C-0.50390625 6.4140625 -0.50390625 6.4140625 -3.5625 6.625 C-4.57441406 6.69976562 -5.58632813 6.77453125 -6.62890625 6.8515625 C-7.41136719 6.90054687 -8.19382812 6.94953125 -9 7 C-9 7.66 -9 8.32 -9 9 C-10.98 9 -12.96 9 -15 9 C-12.33625413 5.55279947 -9.1163741 4.97296115 -5 4 C-4.34 4 -3.68 4 -3 4 C-2.34 3.67 -1.68 3.34 -1 3 C-0.67 2.01 -0.34 1.02 0 0 Z " fill="#055FEA" transform="translate(313,256)"/>
<path d="M0 0 C4.95 0 9.9 0 15 0 C9.375 4.5 9.375 4.5 5.1875 4.25 C4.39730469 4.21390625 3.60710937 4.1778125 2.79296875 4.140625 C2.20128906 4.09421875 1.60960937 4.0478125 1 4 C0.67 2.68 0.34 1.36 0 0 Z " fill="#012A9F" transform="translate(252,267)"/>
<path d="M0 0 C0.33 0 0.66 0 1 0 C1 1.98 1 3.96 1 6 C1.66 6.33 2.32 6.66 3 7 C3.05383848 9.45862401 3.09359038 11.9160755 3.125 14.375 C3.14175781 15.07367188 3.15851563 15.77234375 3.17578125 16.4921875 C3.19344267 18.32897486 3.10303261 20.16601963 3 22 C2.34 22.66 1.68 23.32 1 24 C0 23 0 23 -0.11352539 20.77514648 C-0.10828857 19.81680908 -0.10305176 18.85847168 -0.09765625 17.87109375 C-0.09443359 16.83662109 -0.09121094 15.80214844 -0.08789062 14.73632812 C-0.07951172 13.64771484 -0.07113281 12.55910156 -0.0625 11.4375 C-0.05798828 10.34501953 -0.05347656 9.25253906 -0.04882812 8.12695312 C-0.03699826 5.41791505 -0.02051543 2.70898401 0 0 Z " fill="#1385D8" transform="translate(157,208)"/>
<path d="M0 0 C0.33 0 0.66 0 1 0 C1.31274919 8.51372785 0.37292913 16.6030674 -1 25 C-1.33 25 -1.66 25 -2 25 C-2.05455124 22.33305052 -2.09393392 19.66724502 -2.125 17 C-2.14175781 16.25621094 -2.15851563 15.51242188 -2.17578125 14.74609375 C-2.22144715 9.49451557 -1.45712451 5.0483054 0 0 Z " fill="#1069B6" transform="translate(203,203)"/>
<path d="M0 0 C0.33 0 0.66 0 1 0 C1 1.98 1 3.96 1 6 C1.66 6 2.32 6 3 6 C1.125 10.75 1.125 10.75 0 13 C-2.31 13 -4.62 13 -7 13 C-7 11.68 -7 10.36 -7 9 C-4.69 9 -2.38 9 0 9 C0 6.03 0 3.06 0 0 Z " fill="#035DE0" transform="translate(185,328)"/>
<path d="M0 0 C0.99 0.33 1.98 0.66 3 1 C0.84071065 8.39393019 -1.5304518 15.70417741 -4 23 C-4.33 23 -4.66 23 -5 23 C-5.16791994 18.63408158 -5.13572553 15.79684539 -3 12 C-1.77331485 8.03131275 -0.74306073 4.08683399 0 0 Z " fill="#0B6FE8" transform="translate(188,275)"/>
<path d="M0 0 C1.8871875 0.0309375 1.8871875 0.0309375 3.8125 0.0625 C0.8125 2.0625 0.8125 2.0625 -2.25 3.5 C-5.4104398 4.88330155 -5.4104398 4.88330155 -7.1875 8.0625 C-7.8475 8.0625 -8.5075 8.0625 -9.1875 8.0625 C-9.5175 9.7125 -9.8475 11.3625 -10.1875 13.0625 C-11.16870464 10.00986336 -11.16870464 8.11513664 -10.1875 5.0625 C-9.1975 5.0625 -8.2075 5.0625 -7.1875 5.0625 C-7.1875 3.7425 -7.1875 2.4225 -7.1875 1.0625 C-4.43671116 0.14557039 -2.82801087 -0.04636083 0 0 Z " fill="#1173BB" transform="translate(218.1875,172.9375)"/>
<path d="M0 0 C1.37871915 3.82977542 0.87113444 7.07989501 0 11 C-0.99 11.66 -1.98 12.32 -3 13 C-3.72965366 15.56282742 -3.72965366 15.56282742 -4 18 C-4.66 17.67 -5.32 17.34 -6 17 C-5.57312017 15.10174715 -5.13300518 13.20646817 -4.6875 11.3125 C-4.44386719 10.25675781 -4.20023438 9.20101563 -3.94921875 8.11328125 C-3.00739175 5.02424372 -1.77627063 2.68182036 0 0 Z " fill="#0E5DBA" transform="translate(163,281)"/>
<path d="M0 0 C1.27230469 0.00902344 2.54460937 0.01804688 3.85546875 0.02734375 C5.31919922 0.04474609 5.31919922 0.04474609 6.8125 0.0625 C6.4825 0.7225 6.1525 1.3825 5.8125 2.0625 C3.3359375 2.44140625 3.3359375 2.44140625 0.1875 2.625 C-4.32244199 2.92638037 -8.72560891 3.35265369 -13.1875 4.0625 C-9.23682346 -0.26443145 -5.66914617 -0.05201052 0 0 Z " fill="#116DD0" transform="translate(235.1875,232.9375)"/>
<path d="M0 0 C0.33 0 0.66 0 1 0 C1.33 3.3 1.66 6.6 2 10 C1.01 10.495 1.01 10.495 0 11 C-0.69227032 13.80980673 -0.69227032 13.80980673 -1.125 17.0625 C-1.29257813 18.16722656 -1.46015625 19.27195313 -1.6328125 20.41015625 C-1.75398437 21.26480469 -1.87515625 22.11945313 -2 23 C-2.33 23 -2.66 23 -3 23 C-3.23313032 15.46211966 -3.09548878 8.29597188 -1 1 C-0.67 0.67 -0.34 0.34 0 0 Z " fill="#1480B0" transform="translate(163,164)"/>
<path d="M0 0 C0.66 0 1.32 0 2 0 C4 3 4 3 4 6 C4.66 6 5.32 6 6 6 C6.69965443 7.26418246 7.38434763 8.53665402 8.0625 9.8125 C8.44535156 10.52019531 8.82820313 11.22789062 9.22265625 11.95703125 C10 14 10 14 9 17 C8.03576974 15.60823368 7.07888398 14.2113777 6.125 12.8125 C5.59132813 12.03519531 5.05765625 11.25789062 4.5078125 10.45703125 C3 8 3 8 1.9296875 5.26171875 C1.2228424 2.8375715 1.2228424 2.8375715 -1 2 C-0.67 1.34 -0.34 0.68 0 0 Z " fill="#0F62B3" transform="translate(334,156)"/>
<path d="M0 0 C0.66 0 1.32 0 2 0 C1.25 4.75 1.25 4.75 -1 7 C-2.32488113 7.36548445 -3.66018514 7.6937566 -5 8 C-7.39461365 8.91223377 -9.70828922 9.85414461 -12 11 C-11.9375 9.1875 -11.9375 9.1875 -11 7 C-8.68745988 5.95281202 -6.3514852 4.95653635 -4 4 C-2.63015802 2.70420353 -1.2848951 1.38007251 0 0 Z " fill="#08BBF8" transform="translate(188,135)"/>
<path d="M0 0 C-2.30368736 1.06652192 -4.64018187 2.06421005 -7 3 C-7.66 2.67 -8.32 2.34 -9 2 C-9.33 2.99 -9.66 3.98 -10 5 C-12.06640625 5.73046875 -12.06640625 5.73046875 -14.5625 6.1875 C-15.38878906 6.34605469 -16.21507812 6.50460937 -17.06640625 6.66796875 C-18.02353516 6.83232422 -18.02353516 6.83232422 -19 7 C-14.43710756 1.70704476 -6.93693827 -2.31231276 0 0 Z " fill="#00279A" transform="translate(248,269)"/>
<path d="M0 0 C0 3.92998307 -1.27858835 6.49342071 -3 10 C-3.99 10.66 -4.98 11.32 -6 12 C-6.66 12.99 -7.32 13.98 -8 15 C-7.68554487 12.66404762 -7.3496418 10.33094534 -7 8 C-6.938125 7.278125 -6.87625 6.55625 -6.8125 5.8125 C-5.45817681 2.7913175 -2.76000065 1.64425571 0 0 Z " fill="#0AB5EF" transform="translate(175,147)"/>
<path d="M0 0 C1.12737713 3.38213139 1.06292002 4.64771379 0 8 C-1.9375 10.3125 -1.9375 10.3125 -4 12 C-4.66 12 -5.32 12 -6 12 C-4.68139111 7.38486888 -2.78644563 3.90102388 0 0 Z M3 0 C3.33 0.99 3.66 1.98 4 3 C3.67 3.66 3.34 4.32 3 5 C2.34 4.67 1.68 4.34 1 4 C1.66 2.68 2.32 1.36 3 0 Z " fill="#0960C3" transform="translate(170,268)"/>
<path d="M0 0 C5.66442374 0.36504064 10.00703705 1.0554321 15 4 C15 4.33 15 4.66 15 5 C13.14375 4.9690625 13.14375 4.9690625 11.25 4.9375 C8.3359175 4.93233319 5.79046673 5.06984442 3 6 C2.814375 5.071875 2.814375 5.071875 2.625 4.125 C2.12802644 1.80879168 2.12802644 1.80879168 0 0 Z " fill="#0C7DD0" transform="translate(301,135)"/>
<path d="M0 0 C1.19126781 3.57380342 0.7349445 5.50883302 0.0625 9.1875 C-0.13214844 10.27417969 -0.32679688 11.36085938 -0.52734375 12.48046875 C-0.68332031 13.31191406 -0.83929688 14.14335937 -1 15 C-1.66 15 -2.32 15 -3 15 C-3.33 15.66 -3.66 16.32 -4 17 C-3.76408442 15.0789731 -3.52676912 13.15810438 -3.28125 11.23828125 C-3.02544423 9.20249366 -2.79269191 7.16384266 -2.5625 5.125 C-2 2 -2 2 0 0 Z " fill="#0A4CB0" transform="translate(211,315)"/>
<path d="M0 0 C0.33 0 0.66 0 1 0 C0.88557539 1.60495567 0.75805306 3.20898119 0.625 4.8125 C0.55539063 5.70582031 0.48578125 6.59914063 0.4140625 7.51953125 C0 10 0 10 -2 13 C-1.34 13.33 -0.68 13.66 0 14 C-0.66 14.66 -1.32 15.32 -2 16 C-4 14 -6 12 -8 10 C-6.02 10 -4.04 10 -2 10 C-1.855625 8.72125 -1.71125 7.4425 -1.5625 6.125 C-1.29357254 3.74307106 -1.07773654 2.15547309 0 0 Z " fill="#0667E5" transform="translate(192,288)"/>
<path d="M0 0 C-2.41027934 2.41027934 -4.84408095 3.62757711 -7.875 5.1875 C-8.92429688 5.73792969 -9.97359375 6.28835937 -11.0546875 6.85546875 C-14.04912674 8.01909036 -15.0979565 8.21268968 -18 7 C-6.6484563 -0.37991179 -6.6484563 -0.37991179 0 0 Z " fill="#66C4FF" transform="translate(235,241)"/>
<path d="M0 0 C1.32 0 2.64 0 4 0 C4.33 0.99 4.66 1.98 5 3 C5.99 3 6.98 3 8 3 C8 3.66 8 4.32 8 5 C9.32 5.33 10.64 5.66 12 6 C12 6.66 12 7.32 12 8 C11.01 8 10.02 8 9 8 C8.67 8.66 8.34 9.32 8 10 C8 9.01 8 8.02 8 7 C7.13375 6.938125 7.13375 6.938125 6.25 6.875 C2.86687535 5.55934042 1.80777315 3.03447636 0 0 Z " fill="#0B6DD2" transform="translate(291,181)"/>
<path d="M0 0 C1.32 1.65 2.64 3.3 4 5 C3.360625 5.7425 2.72125 6.485 2.0625 7.25 C0.21666593 9.7111121 -0.56069174 11.03466926 -1 14 C-1.66 14 -2.32 14 -3 14 C-2.32829194 10.1936543 -1.27253436 6.64793184 0 3 C-1.65 3 -3.3 3 -5 3 C-3 1 -3 1 0 0 Z " fill="#0669E9" transform="translate(196,273)"/>
<path d="M0 0 C-3 2 -3 2 -7 2 C-7.268125 2.61875 -7.53625 3.2375 -7.8125 3.875 C-9 6 -9 6 -12 8 C-14.1875 7.625 -14.1875 7.625 -16 7 C-15.34 7 -14.68 7 -14 7 C-14 6.34 -14 5.68 -14 5 C-12.35546875 3.74609375 -12.35546875 3.74609375 -10.1875 2.4375 C-9.47980469 2.00308594 -8.77210938 1.56867188 -8.04296875 1.12109375 C-4.81819872 -0.64852193 -3.574532 -1.19151067 0 0 Z " fill="#108DB4" transform="translate(193,134)"/>
<path d="M0 0 C3.73884332 2.65654657 5.64978174 4.58110387 7 9 C7.66 9 8.32 9 9 9 C9 9.66 9 10.32 9 11 C9.66 11 10.32 11 11 11 C11.66 12.32 12.32 13.64 13 15 C11.35 14.67 9.7 14.34 8 14 C8 12.68 8 11.36 8 10 C7.01 9.67 6.02 9.34 5 9 C2.80585815 6.03145515 1.1694002 3.50820059 0 0 Z " fill="#083396" transform="translate(301,289)"/>
<path d="M0 0 C0.99 0 1.98 0 3 0 C2.31092878 3.65943647 1.43178734 7.22441959 0.4375 10.8125 C0.03337891 12.27623047 0.03337891 12.27623047 -0.37890625 13.76953125 C-0.58386719 14.50558594 -0.78882813 15.24164063 -1 16 C-1.33 16 -1.66 16 -2 16 C-2.2358396 10.22192976 -1.86783046 5.48675196 0 0 Z " fill="#0843A3" transform="translate(216,288)"/>
<path d="M0 0 C2.01920337 1.30406884 4.01924973 2.63823419 6 4 C6 4.33 6 4.66 6 5 C3.03 5 0.06 5 -3 5 C-3.33 5.66 -3.66 6.32 -4 7 C-4 5.68 -4 4.36 -4 3 C-2 1.25 -2 1.25 0 0 Z " fill="#059CF7" transform="translate(217,168)"/>
<path d="M0 0 C0.33 0.66 0.66 1.32 1 2 C1.66 2.33 2.32 2.66 3 3 C2.67 3.33 2.34 3.66 2 4 C4.97 4 7.94 4 11 4 C10.67 4.99 10.34 5.98 10 7 C6.37 6.67 2.74 6.34 -1 6 C-1.33 5.01 -1.66 4.02 -2 3 C-1.34 2.01 -0.68 1.02 0 0 Z " fill="#055FEA" transform="translate(301,336)"/>
<path d="M0 0 C0.66 0 1.32 0 2 0 C2 2.97 2 5.94 2 9 C1.34 9 0.68 9 0 9 C-1.2890625 7.46875 -1.2890625 7.46875 -2.625 5.5 C-3.07101563 4.8503125 -3.51703125 4.200625 -3.9765625 3.53125 C-4.31429687 3.0259375 -4.65203125 2.520625 -5 2 C-2 1 -2 1 0 1 C0 0.67 0 0.34 0 0 Z " fill="#05329C" transform="translate(246,288)"/>
<path d="M0 0 C0.99 0 1.98 0 3 0 C3.92188461 2.76565382 4.11785222 4.38283702 4.09765625 7.23046875 C4.09443359 8.03291016 4.09121094 8.83535156 4.08789062 9.66210938 C4.07532227 10.91217773 4.07532227 10.91217773 4.0625 12.1875 C4.05798828 13.03248047 4.05347656 13.87746094 4.04882812 14.74804688 C4.03705403 16.83206155 4.0191189 18.91603977 4 21 C3.67 21 3.34 21 3 21 C2.92652344 19.60587891 2.92652344 19.60587891 2.8515625 18.18359375 C2.30322854 8.92339067 2.30322854 8.92339067 0 0 Z " fill="#0D4F9E" transform="translate(296,188)"/>
<path d="M0 0 C3.06928339 3.06928339 3.44148906 6.77935406 4 11 C3.625 14.5625 3.625 14.5625 3 17 C0.57520264 13.36280395 0.61337423 11.14296518 0.375 6.8125 C0.30023438 5.54019531 0.22546875 4.26789063 0.1484375 2.95703125 C0.09945313 1.98121094 0.05046875 1.00539062 0 0 Z " fill="#0C4DA2" transform="translate(344,173)"/>
<path d="M0 0 C1.29608947 0.93137592 2.58671632 1.8703566 3.875 2.8125 C4.59429687 3.33457031 5.31359375 3.85664063 6.0546875 4.39453125 C8 6 8 6 10 9 C9.01 9.495 9.01 9.495 8 10 C8 9.34 8 8.68 8 8 C6.35 8 4.7 8 3 8 C0 2.25 0 2.25 0 0 Z " fill="#0A44A6" transform="translate(326,317)"/>
<path d="M0 0 C4.67105792 1.55701931 8.08705685 4.08447373 12 7 C10.08984375 7.58203125 10.08984375 7.58203125 8 8 C6.5625 6.6875 6.5625 6.6875 5 5 C2.40084462 3.80972016 2.40084462 3.80972016 0 3 C0 2.01 0 1.02 0 0 Z " fill="#093F9A" transform="translate(340,330)"/>
<path d="M0 0 C1.875 0.1875 1.875 0.1875 4 1 C5.25 3.5625 5.25 3.5625 6 6 C6.66 6 7.32 6 8 6 C8.33 7.32 8.66 8.64 9 10 C8.34 10 7.68 10 7 10 C7 9.34 7 8.68 7 8 C6.34 8 5.68 8 5 8 C3.7109375 6.50390625 3.7109375 6.50390625 2.375 4.5625 C1.92898438 3.92441406 1.48296875 3.28632813 1.0234375 2.62890625 C0 1 0 1 0 0 Z " fill="#0B41A2" transform="translate(263,317)"/>
<path d="M0 0 C0.33 0 0.66 0 1 0 C1.33693273 6.96327638 0.3030887 12.43345544 -2 19 C-3.56454159 14.97985339 -2.46223974 11.30074319 -1.5625 7.25 C-1.34110352 6.20392578 -1.34110352 6.20392578 -1.11523438 5.13671875 C-0.75131967 3.4227979 -0.37670932 1.71115419 0 0 Z " fill="#073F90" transform="translate(156,298)"/>
<path d="M0 0 C3.96 0 7.92 0 12 0 C12.33 0.66 12.66 1.32 13 2 C8.59085217 3.10228696 4.51617599 3.07654536 0 3 C0 2.01 0 1.02 0 0 Z " fill="#0662E8" transform="translate(237,266)"/>
<path d="M0 0 C0.33 0.66 0.66 1.32 1 2 C0.34 2 -0.32 2 -1 2 C-1.4021875 3.1446875 -1.4021875 3.1446875 -1.8125 4.3125 C-2.94424112 6.87380884 -3.91223401 8.19692938 -6 10 C-6.125 4.25 -6.125 4.25 -5 2 C-3.35636866 1.27840576 -1.68949614 0.60648579 0 0 Z " fill="#0A58B2" transform="translate(164,263)"/>
<path d="M0 0 C-0.1875 2.375 -0.1875 2.375 -1 5 C-3.5 6.1875 -3.5 6.1875 -6 7 C-6.33 7.66 -6.66 8.32 -7 9 C-7.66 9 -8.32 9 -9 9 C-7.45665977 5.21180126 -4.44676575 0 0 0 Z " fill="#0E72E7" transform="translate(213,256)"/>
<path d="M0 0 C0.33 0 0.66 0 1 0 C0.88570603 1.77155654 0.75816963 3.54226229 0.625 5.3125 C0.52058594 6.79169922 0.52058594 6.79169922 0.4140625 8.30078125 C0 11 0 11 -2 14 C-2 10.04 -2 6.08 -2 2 C-1.34 2 -0.68 2 0 2 C0 1.34 0 0.68 0 0 Z " fill="#0A92F1" transform="translate(203,197)"/>
<path d="M0 0 C0.33 0 0.66 0 1 0 C1.33 1.98 1.66 3.96 2 6 C2.33 6 2.66 6 3 6 C3.1875 8.8125 3.1875 8.8125 3 12 C2.01 12.99 1.02 13.98 0 15 C0 10.05 0 5.1 0 0 Z " fill="#086AAA" transform="translate(158,193)"/>
<path d="M0 0 C5.21979128 -0.1799928 9.07262981 0.02905192 14 2 C13.67 2.66 13.34 3.32 13 4 C11.58194169 3.71517632 10.16559621 3.42181856 8.75 3.125 C7.96109375 2.96257812 7.1721875 2.80015625 6.359375 2.6328125 C4.03168856 2.00849925 2.10968048 1.15161458 0 0 Z " fill="#0E5FAB" transform="translate(274,174)"/>
<path d="M0 0 C2.4375 1.25 2.4375 1.25 3.4375 4.25 C1.1275 3.92 -1.1825 3.59 -3.5625 3.25 C-3.8925 2.26 -4.2225 1.27 -4.5625 0.25 C-2.5625 -0.75 -2.5625 -0.75 0 0 Z " fill="#0650C2" transform="translate(296.5625,337.75)"/>
<path d="M0 0 C-1.4096347 0.70180531 -2.82807641 1.38593958 -4.25 2.0625 C-5.03890625 2.44535156 -5.8278125 2.82820313 -6.640625 3.22265625 C-9.25993522 4.08564091 -10.44855176 3.93045933 -13 3 C-11.68 2.67 -10.36 2.34 -9 2 C-9 1.34 -9 0.68 -9 0 C-3.375 -1.125 -3.375 -1.125 0 0 Z " fill="#0D48A6" transform="translate(313,263)"/>
<path d="M0 0 C0.33 0.66 0.66 1.32 1 2 C0.22265625 3.9453125 0.22265625 3.9453125 -0.9375 6.125 C-1.31777344 6.84945312 -1.69804687 7.57390625 -2.08984375 8.3203125 C-2.39019531 8.87460938 -2.69054687 9.42890625 -3 10 C-3.33 10 -3.66 10 -4 10 C-3.67 7.03 -3.34 4.06 -3 1 C-2.01 0.67 -1.02 0.34 0 0 Z " fill="#0A44A5" transform="translate(344,226)"/>
<path d="M0 0 C0.33 0.66 0.66 1.32 1 2 C0.34 2 -0.32 2 -1 2 C-1.4021875 3.1446875 -1.4021875 3.1446875 -1.8125 4.3125 C-2.94424112 6.87380884 -3.91223401 8.19692938 -6 10 C-6 8.35 -6 6.7 -6 5 C-5.01 4.67 -4.02 4.34 -3 4 C-3 3.01 -3 2.02 -3 1 C-2.01 0.67 -1.02 0.34 0 0 Z " fill="#0C4AA4" transform="translate(225,278)"/>
<path d="M0 0 C1.2065625 0.0309375 1.2065625 0.0309375 2.4375 0.0625 C2.7675 1.0525 3.0975 2.0425 3.4375 3.0625 C0.4675 2.5675 0.4675 2.5675 -2.5625 2.0625 C-2.5625 4.3725 -2.5625 6.6825 -2.5625 9.0625 C-2.8925 9.0625 -3.2225 9.0625 -3.5625 9.0625 C-3.66015625 2.91015625 -3.66015625 2.91015625 -3.5625 1.0625 C-2.5625 0.0625 -2.5625 0.0625 0 0 Z " fill="#1275E4" transform="translate(183.5625,309.9375)"/>
<path d="M0 0 C0.99 0.33 1.98 0.66 3 1 C3 2.32 3 3.64 3 5 C1.02 5 -0.96 5 -3 5 C-2.625 3.0625 -2.625 3.0625 -2 1 C-1.34 0.67 -0.68 0.34 0 0 Z " fill="#0258E4" transform="translate(204,336)"/>
<path d="M0 0 C0.99 0 1.98 0 3 0 C3 0.99 3 1.98 3 3 C3.66 3.33 4.32 3.66 5 4 C5.72693904 5.97888961 6.39816251 7.97954558 7 10 C3.60582235 6.87378374 1.3937282 4.43458973 0 0 Z " fill="#06368F" transform="translate(248,297)"/>
<path d="M0 0 C1.65 0 3.3 0 5 0 C4.67 1.98 4.34 3.96 4 6 C2.68 5.34 1.36 4.68 0 4 C0 2.68 0 1.36 0 0 Z " fill="#60C1FC" transform="translate(191,276)"/>
<path d="M0 0 C0.99 0.66 1.98 1.32 3 2 C2.34 4.31 1.68 6.62 1 9 C-0.4606285 6.35261084 -1 5.10551666 -1 2 C-0.67 1.34 -0.34 0.68 0 0 Z " fill="#0B96F4" transform="translate(203,185)"/>
<path d="M0 0 C2.475 0.495 2.475 0.495 5 1 C5 1.99 5 2.98 5 4 C3.35 4.33 1.7 4.66 0 5 C0 3.35 0 1.7 0 0 Z " fill="#0543CD" transform="translate(296,288)"/>
<path d="M0 0 C1.67542976 0.28604898 3.34385343 0.61781233 5 1 C5.33 2.32 5.66 3.64 6 5 C3.08482708 3.92598892 1.22189824 3.22189824 -1 1 C-0.67 0.67 -0.34 0.34 0 0 Z " fill="#052781" transform="translate(227,276)"/>
<path d="M0 0 C-0.33 0.66 -0.66 1.32 -1 2 C-4.91765889 2.81309902 -8.17907588 3.37553268 -12 2 C-7.8803623 0.70756464 -4.33168317 -0.26252625 0 0 Z " fill="#1355A3" transform="translate(223,235)"/>
<path d="M0 0 C0.66 0 1.32 0 2 0 C3.125 3.75 3.125 3.75 2 6 C0.35 5.67 -1.3 5.34 -3 5 C-1.625 2.5 -1.625 2.5 0 0 Z " fill="#0659D8" transform="translate(313,256)"/>
<path d="M0 0 C0.99 0.33 1.98 0.66 3 1 C2.6875 3.375 2.6875 3.375 2 6 C1.01 6.66 0.02 7.32 -1 8 C-1.04241723 5.66705225 -1.04092937 3.33297433 -1 1 C-0.67 0.67 -0.34 0.34 0 0 Z " fill="#074AA9" transform="translate(332,241)"/>
<path d="M0 0 C0.99 0 1.98 0 3 0 C4.125 4.75 4.125 4.75 3 7 C2.34 7 1.68 7 1 7 C0 4 0 4 0 0 Z " fill="#0563E8" transform="translate(328,242)"/>
<path d="M0 0 C0.33 0.99 0.66 1.98 1 3 C-0.4375 5.6875 -0.4375 5.6875 -2 8 C-3.32 7.67 -4.64 7.34 -6 7 C-5.195625 6.21625 -4.39125 5.4325 -3.5625 4.625 C-1.01309583 2.28017144 -1.01309583 2.28017144 0 0 Z " fill="#0B4C9F" transform="translate(295,216)"/>
<path d="M0 0 C0.99 0.33 1.98 0.66 3 1 C3 2.66666667 3 4.33333333 3 6 C2.01 6.66 1.02 7.32 0 8 C0 5.36 0 2.72 0 0 Z " fill="#04A8F5" transform="translate(162,175)"/>
<path d="M0 0 C2.00047023 2.54605302 3.82572785 4.9664636 5 8 C4.67 8.99 4.34 9.98 4 11 C1.29727467 8.12835434 0.05208163 6.69008159 -0.25 2.6875 C-0.1675 1.800625 -0.085 0.91375 0 0 Z " fill="#0B448C" transform="translate(339,162)"/>
<path d="M0 0 C1 2 1 2 0.25 5.5625 C-0.1625 6.696875 -0.575 7.83125 -1 9 C-1.99 9.33 -2.98 9.66 -4 10 C-3.43454163 6.04179141 -2.19097652 3.3340947 0 0 Z " fill="#0E80A9" transform="translate(168,153)"/>
<path d="M0 0 C3.93673644 1.31224548 6.22719294 2.91910327 9 6 C6.03 5.505 6.03 5.505 3 5 C3 4.34 3 3.68 3 3 C2.34 3 1.68 3 1 3 C0.67 2.01 0.34 1.02 0 0 Z " fill="#0F599C" transform="translate(316,140)"/>
<path d="M0 0 C0.33 0 0.66 0 1 0 C1 1.98 1 3.96 1 6 C1.66 6 2.32 6 3 6 C2.34 7.65 1.68 9.3 1 11 C0.34 10.67 -0.32 10.34 -1 10 C-0.67 6.7 -0.34 3.4 0 0 Z " fill="#0057D3" transform="translate(185,328)"/>
<path d="M0 0 C-1 2 -1 2 -3.3125 3.1875 C-6.11989571 4.03624754 -7.301935 3.99928333 -10 3 C-6.68152292 -0.06320961 -4.44849969 -0.3033068 0 0 Z " fill="#0460ED" transform="translate(293,265)"/>
<path d="M0 0 C2.475 0.99 2.475 0.99 5 2 C5 2.66 5 3.32 5 4 C2.69 4 0.38 4 -2 4 C-1.34 2.68 -0.68 1.36 0 0 Z " fill="#0260ED" transform="translate(322,248)"/>
<path d="M0 0 C0.33 0 0.66 0 1 0 C1.33 3.3 1.66 6.6 2 10 C1.34 10 0.68 10 0 10 C-0.19412181 8.52168779 -0.38012131 7.04230684 -0.5625 5.5625 C-0.66691406 4.73878906 -0.77132812 3.91507813 -0.87890625 3.06640625 C-0.91886719 2.38449219 -0.95882812 1.70257813 -1 1 C-0.67 0.67 -0.34 0.34 0 0 Z " fill="#1092C9" transform="translate(163,164)"/>
<path d="M0 0 C1 2 1 2 0.375 3.9375 C-1.35198322 6.52797483 -3.2734275 7.56496184 -6 9 C-5 7 -4 5 -3 3 C-2.34 3 -1.68 3 -1 3 C-0.67 2.01 -0.34 1.02 0 0 Z " fill="#11769F" transform="translate(176,142)"/>
<path d="M0 0 C2.75383923 1.37691962 3.51483101 3.36720042 5 6 C3.68 6 2.36 6 1 6 C0.34 4.35 -0.32 2.7 -1 1 C-0.67 0.67 -0.34 0.34 0 0 Z " fill="#062585" transform="translate(284,270)"/>
<path d="M0 0 C0.66 0 1.32 0 2 0 C2.33 1.32 2.66 2.64 3 4 C2.34 4 1.68 4 1 4 C1 4.66 1 5.32 1 6 C0.34 6 -0.32 6 -1 6 C-1.042721 4.33388095 -1.04063832 2.66617115 -1 1 C-0.67 0.67 -0.34 0.34 0 0 Z " fill="#0BB2F5" transform="translate(165,162)"/>
</svg>
